<?xml version="1.0" encoding="utf-8"?>
<!-- Svg Vector Icons : http://www.onlinewebfonts.com/icon -->
<!DOCTYPE svg PUBLIC "-//W3C//DTD SVG 1.1//EN" "http://www.w3.org/Graphics/SVG/1.1/DTD/svg11.dtd">
<svg version="1.1" xmlns="http://www.w3.org/2000/svg" xmlns:xlink="http://www.w3.org/1999/xlink" x="0px" y="0px" viewBox="0 0 1000 1000" enable-background="new 0 0 1000 1000" xml:space="preserve">
<metadata> Svg Vector Icons : http://www.onlinewebfonts.com/icon </metadata>
<g><path d="M862.4,389.8L920.3,490l-405,21.9L608.8,674l180.6,19.4l33.2,57.5l-238.8,92.5L409.6,990l-33.5-58l74.2-167.7l-91.5-158.4L137.6,945.2L79.8,845l156.9-450.7L95.6,150C69.3,104.4,83.3,46.9,126.9,21.7c43.5-25.1,100.4-8.5,126.7,37.1L393,300.2L862.4,389.8z M856.5,455.5l-18.3-31.7l-469.4-89.6L220.8,77.8c-15.9-27.5-49.5-37.9-74.9-23.2c-25.4,14.7-33.3,49-17.4,76.5l149.7,259.3L121.3,841.1l18.3,31.7l221.2-339.3l132,228.6l-74.2,167.7l1.2,2.1l143.4-120.5l5.5-2.6l199-77.2l-1.5-2.5l-180.6-19.4L451.5,477.4L856.5,455.5z"/></g>
</svg>